<svg width="75" height="75" xmlns="http://www.w3.org/2000/svg" xmlns:xlink="http://www.w3.org/1999/xlink" xmlns:svgjs="http://svgjs.com/svgjs" viewBox="646 1347 75 75"><svg width="14" height="17" xmlns="http://www.w3.org/2000/svg" xmlns:xlink="http://www.w3.org/1999/xlink" xmlns:svgjs="http://svgjs.com/svgjs" viewBox="0.135 0 13.73 17" fill="#feccc1" x="700" y="1392"><svg xmlns="http://www.w3.org/2000/svg" xmlns:xlink="http://www.w3.org/1999/xlink" width="14" height="17" viewBox="0.713 0.619 12.731 15.763"><path paint-order="stroke fill markers" fill-rule="evenodd" d="M13.444 6.985a6.366 6.366 0 0 0-12.73 0v3.032a6.365 6.365 0 0 0 12.73 0V6.985z"/></svg></svg><svg width="9" height="17" xmlns="http://www.w3.org/2000/svg" xmlns:xlink="http://www.w3.org/1999/xlink" xmlns:svgjs="http://svgjs.com/svgjs" viewBox="0.373 0 8.255 17" fill="#f9b3a7" x="705" y="1392"><svg xmlns="http://www.w3.org/2000/svg" xmlns:xlink="http://www.w3.org/1999/xlink" width="9" height="17" viewBox="0.79 0.619 7.654 15.763"><path paint-order="stroke fill markers" fill-rule="evenodd" d="M2.079.62C1.637.62 1.207.664.79.75a6.368 6.368 0 0 1 5.078 6.235v3.032A6.367 6.367 0 0 1 .79 16.25a6.366 6.366 0 0 0 7.654-6.234V6.985A6.366 6.366 0 0 0 2.08.619z"/></svg></svg><svg width="28" height="16" xmlns="http://www.w3.org/2000/svg" xmlns:xlink="http://www.w3.org/1999/xlink" xmlns:svgjs="http://svgjs.com/svgjs" viewBox="0 0.371 28 15.258" fill="#2b7eec" x="693" y="1406"><svg xmlns="http://www.w3.org/2000/svg" xmlns:xlink="http://www.w3.org/1999/xlink" width="28" height="16" viewBox="0.59 0.866 26.977 14.701"><path paint-order="stroke fill markers" fill-rule="evenodd" d="M27.568 14.052v-2.928a9.094 9.094 0 0 0-6.111-8.59l-3.836-1.332a6.066 6.066 0 0 0-1.988-.336h-3.108c-.677 0-1.35.114-1.989.336L6.701 2.533a9.093 9.093 0 0 0-6.11 8.59v4.445h25.461c.837 0 1.516-.679 1.516-1.516z"/></svg></svg><svg width="8" height="14" xmlns="http://www.w3.org/2000/svg" xmlns:xlink="http://www.w3.org/1999/xlink" xmlns:svgjs="http://svgjs.com/svgjs" viewBox="0.345 0 7.311 14" fill="#669af7" x="713" y="1408"><svg xmlns="http://www.w3.org/2000/svg" xmlns:xlink="http://www.w3.org/1999/xlink" width="8" height="14" viewBox="0.607 0.238 6.961 13.33"><path paint-order="stroke fill markers" fill-rule="evenodd" d="M1.457.533L.607.238a9.095 9.095 0 0 1 3.626 7.267v6.063h1.82c.836 0 1.515-.679 1.515-1.516V9.124A9.094 9.094 0 0 0 1.457.534z"/></svg></svg><svg width="13" height="17" xmlns="http://www.w3.org/2000/svg" xmlns:xlink="http://www.w3.org/1999/xlink" xmlns:svgjs="http://svgjs.com/svgjs" viewBox="0 0.452 13 16.096" fill="#feccc1" x="653" y="1392"><svg xmlns="http://www.w3.org/2000/svg" xmlns:xlink="http://www.w3.org/1999/xlink" width="13" height="17" viewBox="0.123 0.619 12.731 15.763"><path paint-order="stroke fill markers" fill-rule="evenodd" d="M12.854 6.985a6.366 6.366 0 0 0-12.73 0v3.032a6.366 6.366 0 0 0 12.73 0V6.985z"/></svg></svg><svg width="8" height="17" xmlns="http://www.w3.org/2000/svg" xmlns:xlink="http://www.w3.org/1999/xlink" xmlns:svgjs="http://svgjs.com/svgjs" viewBox="0 0.262 8 16.476" fill="#f9b3a7" x="658" y="1392"><svg xmlns="http://www.w3.org/2000/svg" xmlns:xlink="http://www.w3.org/1999/xlink" width="8" height="17" viewBox="0.201 0.619 7.653 15.763"><path paint-order="stroke fill markers" fill-rule="evenodd" d="M1.489.62C1.048.62.617.664.2.75a6.368 6.368 0 0 1 5.077 6.235v3.032A6.367 6.367 0 0 1 .2 16.25a6.365 6.365 0 0 0 7.653-6.234V6.985A6.366 6.366 0 0 0 1.49.619z"/></svg></svg><svg width="27" height="16" xmlns="http://www.w3.org/2000/svg" xmlns:xlink="http://www.w3.org/1999/xlink" xmlns:svgjs="http://svgjs.com/svgjs" viewBox="0 0.643 27 14.713" fill="#2b7eec" x="646" y="1406"><svg xmlns="http://www.w3.org/2000/svg" xmlns:xlink="http://www.w3.org/1999/xlink" width="27" height="16" viewBox="0 0.866 26.977 14.701"><path paint-order="stroke fill markers" fill-rule="evenodd" d="M26.977 15.568v-4.444a9.094 9.094 0 0 0-6.11-8.59L17.03 1.201a6.062 6.062 0 0 0-1.988-.336h-3.108c-.677 0-1.35.114-1.989.336L6.111 2.533A9.094 9.094 0 0 0 0 11.123v2.929c0 .837.679 1.516 1.516 1.516h25.461z"/></svg></svg><svg width="7" height="14" xmlns="http://www.w3.org/2000/svg" xmlns:xlink="http://www.w3.org/1999/xlink" xmlns:svgjs="http://svgjs.com/svgjs" viewBox="0 0.078 7 13.844" fill="#669af7" x="666" y="1408"><svg xmlns="http://www.w3.org/2000/svg" xmlns:xlink="http://www.w3.org/1999/xlink" width="7" height="14" viewBox="0.285 0.331 6.693 13.236"><path paint-order="stroke fill markers" fill-rule="evenodd" d="M.867.533L.285.331a9.09 9.09 0 0 1 3.51 7.174v6.063h3.182V9.124A9.094 9.094 0 0 0 .867.534z"/></svg></svg><svg width="14" height="17" xmlns="http://www.w3.org/2000/svg" xmlns:xlink="http://www.w3.org/1999/xlink" xmlns:svgjs="http://svgjs.com/svgjs" viewBox="0.135 0 13.73 17" fill="#feccc1" x="676" y="1392"><svg xmlns="http://www.w3.org/2000/svg" xmlns:xlink="http://www.w3.org/1999/xlink" width="14" height="17" viewBox="0.918 0.619 12.731 15.763"><path paint-order="stroke fill markers" fill-rule="evenodd" d="M13.65 6.985a6.366 6.366 0 0 0-12.732 0v3.032a6.365 6.365 0 0 0 12.731 0V6.985z"/></svg></svg><svg width="9" height="17" xmlns="http://www.w3.org/2000/svg" xmlns:xlink="http://www.w3.org/1999/xlink" xmlns:svgjs="http://svgjs.com/svgjs" viewBox="0.373 0 8.255 17" fill="#f9b3a7" x="681" y="1392"><svg xmlns="http://www.w3.org/2000/svg" xmlns:xlink="http://www.w3.org/1999/xlink" width="9" height="17" viewBox="0.995 0.619 7.654 15.763"><path paint-order="stroke fill markers" fill-rule="evenodd" d="M2.284.62A6.41 6.41 0 0 0 .995.75a6.368 6.368 0 0 1 5.078 6.235v3.032A6.367 6.367 0 0 1 .995 16.25a6.365 6.365 0 0 0 7.654-6.234V6.985A6.366 6.366 0 0 0 2.284.619z"/></svg></svg><svg width="28" height="16" xmlns="http://www.w3.org/2000/svg" xmlns:xlink="http://www.w3.org/1999/xlink" xmlns:svgjs="http://svgjs.com/svgjs" viewBox="0 0.371 28 15.258" fill="#2b7eec" x="669" y="1406"><svg xmlns="http://www.w3.org/2000/svg" xmlns:xlink="http://www.w3.org/1999/xlink" width="28" height="16" viewBox="0.795 0.866 26.977 14.701"><path paint-order="stroke fill markers" fill-rule="evenodd" d="M27.773 15.568v-4.444a9.094 9.094 0 0 0-6.111-8.59l-3.836-1.332a6.064 6.064 0 0 0-1.988-.336H12.73c-.677 0-1.35.114-1.989.336L6.906 2.533a9.094 9.094 0 0 0-6.11 8.59v4.445h26.977z"/></svg></svg><svg width="8" height="14" xmlns="http://www.w3.org/2000/svg" xmlns:xlink="http://www.w3.org/1999/xlink" xmlns:svgjs="http://svgjs.com/svgjs" viewBox="0.345 0 7.311 14" fill="#669af7" x="689" y="1408"><svg xmlns="http://www.w3.org/2000/svg" xmlns:xlink="http://www.w3.org/1999/xlink" width="8" height="14" viewBox="0.812 0.238 6.961 13.33"><path paint-order="stroke fill markers" fill-rule="evenodd" d="M1.662.533L.812.238a9.095 9.095 0 0 1 3.626 7.267v6.063h3.335V9.124A9.094 9.094 0 0 0 1.662.534z"/></svg></svg><svg width="27" height="16" xmlns="http://www.w3.org/2000/svg" xmlns:xlink="http://www.w3.org/1999/xlink" xmlns:svgjs="http://svgjs.com/svgjs" viewBox="0 0.643 27 14.714" fill="#ff6969" x="646" y="1369"><svg xmlns="http://www.w3.org/2000/svg" xmlns:xlink="http://www.w3.org/1999/xlink" width="27" height="16" viewBox="0 0.582 26.977 14.702"><path paint-order="stroke fill markers" fill-rule="evenodd" d="M13.489 15.284h11.973c.837 0 1.516-.679 1.516-1.516V9.676A9.094 9.094 0 0 0 17.884.582h-8.79A9.094 9.094 0 0 0 0 9.676v4.092c0 .837.679 1.516 1.516 1.516h11.973z"/></svg></svg><svg width="9" height="16" xmlns="http://www.w3.org/2000/svg" xmlns:xlink="http://www.w3.org/1999/xlink" xmlns:svgjs="http://svgjs.com/svgjs" viewBox="0 0.09 9 15.821" fill="#ea4747" x="664" y="1369"><svg xmlns="http://www.w3.org/2000/svg" xmlns:xlink="http://www.w3.org/1999/xlink" width="9" height="16" viewBox="0.633 0.616 8.344 14.668"><path paint-order="stroke fill markers" fill-rule="evenodd" d="M.633.616a9.085 9.085 0 0 1 4.252 7.696v6.972h2.577c.837 0 1.515-.68 1.515-1.516V9.676c0-4.77-3.672-8.68-8.344-9.06z"/></svg></svg><svg width="13" height="17" xmlns="http://www.w3.org/2000/svg" xmlns:xlink="http://www.w3.org/1999/xlink" xmlns:svgjs="http://svgjs.com/svgjs" viewBox="0 0.298 13 16.405" fill="#feccc1" x="653" y="1355"><svg xmlns="http://www.w3.org/2000/svg" xmlns:xlink="http://www.w3.org/1999/xlink" width="13" height="17" viewBox="0.123 0.033 12.731 16.065"><path paint-order="stroke fill markers" fill-rule="evenodd" d="M12.854 6.398a6.365 6.365 0 1 0-12.73 0v3.335a6.366 6.366 0 0 0 12.73 0V6.398z"/></svg></svg><svg width="8" height="17" xmlns="http://www.w3.org/2000/svg" xmlns:xlink="http://www.w3.org/1999/xlink" xmlns:svgjs="http://svgjs.com/svgjs" viewBox="0 0.104 8 16.793" fill="#f9b3a7" x="658" y="1355"><svg xmlns="http://www.w3.org/2000/svg" xmlns:xlink="http://www.w3.org/1999/xlink" width="8" height="17" viewBox="0.201 0.032 7.653 16.065"><path paint-order="stroke fill markers" fill-rule="evenodd" d="M1.489.032C1.048.032.617.078.2.163a6.367 6.367 0 0 1 5.077 6.235v3.334A6.368 6.368 0 0 1 .2 15.968a6.365 6.365 0 0 0 7.653-6.235V6.397A6.366 6.366 0 0 0 1.49.032z"/></svg></svg><svg width="44" height="38" xmlns="http://www.w3.org/2000/svg" xmlns:xlink="http://www.w3.org/1999/xlink" xmlns:svgjs="http://svgjs.com/svgjs" viewBox="0.22 0 43.561 38" fill="#2b7eec" x="677" y="1347"><svg xmlns="http://www.w3.org/2000/svg" xmlns:xlink="http://www.w3.org/1999/xlink" width="44" height="38" viewBox="0.828 0 42.739 37.284"><path paint-order="stroke fill markers" fill-rule="evenodd" d="M42.052 37.284H2.344a1.515 1.515 0 0 1-1.516-1.516V1.516C.828.678 1.506 0 2.343 0h39.71c.836 0 1.515.678 1.515 1.516v34.252c0 .837-.68 1.516-1.516 1.516z"/></svg></svg><svg width="3" height="38" xmlns="http://www.w3.org/2000/svg" xmlns:xlink="http://www.w3.org/1999/xlink" xmlns:svgjs="http://svgjs.com/svgjs" viewBox="0.341 0 2.317 38" fill="#2b7eec" x="718" y="1347"><svg xmlns="http://www.w3.org/2000/svg" xmlns:xlink="http://www.w3.org/1999/xlink" width="3" height="38" viewBox="0.294 0 2.273 37.284"><path paint-order="stroke fill markers" fill-rule="evenodd" d="M.294 0v37.284h.758c.837 0 1.516-.68 1.516-1.516V1.516C2.568.678 1.889 0 1.052 0H.294z"/></svg></svg><svg width="44" height="6" xmlns="http://www.w3.org/2000/svg" xmlns:xlink="http://www.w3.org/1999/xlink" xmlns:svgjs="http://svgjs.com/svgjs" viewBox="0 0.347 44 5.305" fill="#ffd664" x="677" y="1379"><svg xmlns="http://www.w3.org/2000/svg" xmlns:xlink="http://www.w3.org/1999/xlink" width="44" height="6" viewBox="0.827 0.131 42.74 5.153"><path paint-order="stroke fill markers" fill-rule="evenodd" d="M.827 3.768V.131h42.74v3.637c0 .837-.678 1.516-1.515 1.516H2.344A1.516 1.516 0 0 1 .827 3.768z"/></svg></svg><svg width="44" height="6" xmlns="http://www.w3.org/2000/svg" xmlns:xlink="http://www.w3.org/1999/xlink" xmlns:svgjs="http://svgjs.com/svgjs" viewBox="0 0.348 44 5.305" fill="#f9c646" x="677" y="1379"><svg xmlns="http://www.w3.org/2000/svg" xmlns:xlink="http://www.w3.org/1999/xlink" width="44" height="6" viewBox="0.828 0.131 42.74 5.153"><path paint-order="stroke fill markers" fill-rule="evenodd" d="M41.294.13v1.365c0 .837-.678 1.516-1.515 1.516H.827v.757c0 .837.68 1.516 1.516 1.516h39.71c.836 0 1.515-.678 1.515-1.516V.131h-2.274z"/></svg></svg><svg width="13" height="13" xmlns="http://www.w3.org/2000/svg" xmlns:xlink="http://www.w3.org/1999/xlink" xmlns:svgjs="http://svgjs.com/svgjs" viewBox="0 0 12.999 13" fill="#ffd664" x="683" y="1351"><svg xmlns="http://www.w3.org/2000/svg" xmlns:xlink="http://www.w3.org/1999/xlink" width="13" height="13" viewBox="0.208 0.547 12.124 12.125"><path paint-order="stroke fill markers" fill-rule="evenodd" d="M12.333 6.61a6.062 6.062 0 1 1-12.125 0 6.062 6.062 0 0 1 12.125 0z"/></svg></svg><svg width="34" height="19" xmlns="http://www.w3.org/2000/svg" xmlns:xlink="http://www.w3.org/1999/xlink" xmlns:svgjs="http://svgjs.com/svgjs" viewBox="682 1352 34 19" x="682" y="1352"><svg width="17" height="3" xmlns="http://www.w3.org/2000/svg" xmlns:xlink="http://www.w3.org/1999/xlink" xmlns:svgjs="http://svgjs.com/svgjs" viewBox="0 0.33 17 2.339" fill="#636363" x="699" y="1352"><svg xmlns="http://www.w3.org/2000/svg" xmlns:xlink="http://www.w3.org/1999/xlink" width="17" height="3" viewBox="0.273 0.532 16.52 2.273"><path paint-order="stroke fill markers" fill-rule="evenodd" d="M15.657 2.805H1.41a1.137 1.137 0 1 1 0-2.273h14.247a1.136 1.136 0 1 1 0 2.273z"/></svg></svg><svg width="17" height="3" xmlns="http://www.w3.org/2000/svg" xmlns:xlink="http://www.w3.org/1999/xlink" xmlns:svgjs="http://svgjs.com/svgjs" viewBox="0 0.33 17 2.339" fill="#636363" x="699" y="1360"><svg xmlns="http://www.w3.org/2000/svg" xmlns:xlink="http://www.w3.org/1999/xlink" width="17" height="3" viewBox="0.273 0.413 16.52 2.273"><path paint-order="stroke fill markers" fill-rule="evenodd" d="M15.657 2.686H1.41a1.136 1.136 0 1 1 0-2.273h14.247a1.136 1.136 0 1 1 0 2.273z"/></svg></svg><svg width="34" height="4" xmlns="http://www.w3.org/2000/svg" xmlns:xlink="http://www.w3.org/1999/xlink" xmlns:svgjs="http://svgjs.com/svgjs" viewBox="0 0.836 34 2.329" fill="#636363" x="682" y="1367"><svg xmlns="http://www.w3.org/2000/svg" width="34" height="4" viewBox="0.602 0.991 33.192 2.273"><path paint-order="stroke fill markers" fill-rule="evenodd" d="M32.657 3.264H1.738a1.137 1.137 0 0 1 0-2.273h30.919a1.137 1.137 0 1 1 0 2.273z"/></svg></svg></svg></svg>