<svg width="59" height="72" xmlns="http://www.w3.org/2000/svg" xmlns:xlink="http://www.w3.org/1999/xlink" xmlns:svgjs="http://svgjs.com/svgjs" viewBox="403 1701 59 72"><svg width="7" height="24" xmlns="http://www.w3.org/2000/svg" xmlns:xlink="http://www.w3.org/1999/xlink" xmlns:svgjs="http://svgjs.com/svgjs" viewBox="0.408 0 6.184 24" fill="#ffd664" x="453" y="1701"><svg xmlns="http://www.w3.org/2000/svg" xmlns:xlink="http://www.w3.org/1999/xlink" width="7" height="24" viewBox="0.383 1 5.892 22.867"><path paint-order="stroke fill markers" fill-rule="evenodd" d="M6.275 16.783a2.945 2.945 0 0 0-1.893-2.75V2.052a1.052 1.052 0 0 0-2.105 0v11.982a2.944 2.944 0 0 0 0 5.498v3.283a1.052 1.052 0 0 0 2.105 0v-3.283a2.944 2.944 0 0 0 1.893-2.75z"/></svg></svg><svg width="7" height="6" xmlns="http://www.w3.org/2000/svg" xmlns:xlink="http://www.w3.org/1999/xlink" xmlns:svgjs="http://svgjs.com/svgjs" viewBox="0.5 0 6 6" fill="#f9c646" x="453" y="1715"><svg xmlns="http://www.w3.org/2000/svg" xmlns:xlink="http://www.w3.org/1999/xlink" width="7" height="6" viewBox="0.776 0.23 5.499 5.499"><path paint-order="stroke fill markers" fill-rule="evenodd" d="M4.795.23c.248.431.393.931.393 1.465A2.947 2.947 0 0 1 .776 4.25 2.946 2.946 0 1 0 4.795.229z"/></svg></svg><svg width="55" height="16" xmlns="http://www.w3.org/2000/svg" xmlns:xlink="http://www.w3.org/1999/xlink" xmlns:svgjs="http://svgjs.com/svgjs" viewBox="0 0.066 55 15.868" fill="#636363" x="405" y="1702"><svg xmlns="http://www.w3.org/2000/svg" xmlns:xlink="http://www.w3.org/1999/xlink" width="55" height="16" viewBox="0.754 0 53.732 15.502"><path paint-order="stroke fill markers" fill-rule="evenodd" d="M53.434 0H1.806a1.052 1.052 0 1 0 0 2.104h8.979v13.398h33.67V2.104h8.979a1.052 1.052 0 1 0 0-2.104z"/></svg></svg><svg width="59" height="25" xmlns="http://www.w3.org/2000/svg" xmlns:xlink="http://www.w3.org/1999/xlink" xmlns:svgjs="http://svgjs.com/svgjs" viewBox="0 0.57 59 23.861" fill="#2b7eec" x="403" y="1748"><svg xmlns="http://www.w3.org/2000/svg" xmlns:xlink="http://www.w3.org/1999/xlink" width="59" height="25" viewBox="1 0.928 57.239 23.148"><path paint-order="stroke fill markers" fill-rule="evenodd" d="M21.202.928L9.22 4.257A11.223 11.223 0 0 0 1 15.07v7.637c0 .756.613 1.37 1.369 1.37H56.87c.756 0 1.368-.614 1.368-1.37V15.07c0-5.042-3.361-9.464-8.22-10.813L38.038.927H21.202z"/></svg></svg><svg width="9" height="14" xmlns="http://www.w3.org/2000/svg" xmlns:xlink="http://www.w3.org/1999/xlink" xmlns:svgjs="http://svgjs.com/svgjs" viewBox="0 0.25 9 13.5" fill="#ff6969" x="428" y="1759"><svg xmlns="http://www.w3.org/2000/svg" xmlns:xlink="http://www.w3.org/1999/xlink" width="9" height="14" viewBox="0.27 0.029 8.699 13.047"><path paint-order="stroke fill markers" fill-rule="evenodd" d="M7.285.029l1.684 8.417-4.35 4.63L.27 8.446 1.954.03h5.33z"/></svg></svg><svg width="5" height="11" xmlns="http://www.w3.org/2000/svg" xmlns:xlink="http://www.w3.org/1999/xlink" xmlns:svgjs="http://svgjs.com/svgjs" viewBox="0.28 0 4.44 11" fill="#ea4747" x="432" y="1759"><svg xmlns="http://www.w3.org/2000/svg" xmlns:xlink="http://www.w3.org/1999/xlink" width="5" height="11" viewBox="0.62 0.029 4.349 10.775"><path paint-order="stroke fill markers" fill-rule="evenodd" d="M4.97 8.446L3.285.03H.62l2.134 10.775 2.215-2.358z"/></svg></svg><svg width="30" height="23" xmlns="http://www.w3.org/2000/svg" xmlns:xlink="http://www.w3.org/1999/xlink" xmlns:svgjs="http://svgjs.com/svgjs" viewBox="0.053 0 29.895 23" fill="#636363" x="432" y="1750"><svg xmlns="http://www.w3.org/2000/svg" xmlns:xlink="http://www.w3.org/1999/xlink" width="30" height="23" viewBox="0.62 0.057 28.62 22.019"><path paint-order="stroke fill markers" fill-rule="evenodd" d="M29.24 13.07v7.637c0 .756-.613 1.37-1.37 1.37H.62l8.277-8.699L13.102.058l7.918 2.199a11.222 11.222 0 0 1 8.22 10.813z"/></svg></svg><svg width="10" height="21" xmlns="http://www.w3.org/2000/svg" xmlns:xlink="http://www.w3.org/1999/xlink" xmlns:svgjs="http://svgjs.com/svgjs" viewBox="0.225 0 9.549 21" fill="#494949" x="452" y="1752"><svg xmlns="http://www.w3.org/2000/svg" xmlns:xlink="http://www.w3.org/1999/xlink" width="10" height="21" viewBox="0.112 0.004 9.127 20.072"><path paint-order="stroke fill markers" fill-rule="evenodd" d="M1.02.257L.112.004a11.22 11.22 0 0 1 3.936 8.534v11.538h3.823a1.37 1.37 0 0 0 1.368-1.369V11.07c0-5.042-3.361-9.464-8.22-10.813z"/></svg></svg><svg width="29" height="23" xmlns="http://www.w3.org/2000/svg" xmlns:xlink="http://www.w3.org/1999/xlink" xmlns:svgjs="http://svgjs.com/svgjs" viewBox="0 0.344 29 22.312" fill="#636363" x="404" y="1750"><svg xmlns="http://www.w3.org/2000/svg" xmlns:xlink="http://www.w3.org/1999/xlink" width="29" height="23" viewBox="0 0.057 28.62 22.019"><path paint-order="stroke fill markers" fill-rule="evenodd" d="M8.22 2.257l7.918-2.2 4.205 13.321 8.277 8.698H1.369A1.369 1.369 0 0 1 0 20.707V13.07C0 8.028 3.362 3.606 8.22 2.257z"/></svg></svg><svg width="11" height="14" xmlns="http://www.w3.org/2000/svg" xmlns:xlink="http://www.w3.org/1999/xlink" xmlns:svgjs="http://svgjs.com/svgjs" viewBox="0.08 0 10.839 14" fill="#f9b3a7" x="427" y="1737"><svg xmlns="http://www.w3.org/2000/svg" xmlns:xlink="http://www.w3.org/1999/xlink" width="11" height="14" viewBox="0.569 0.424 10.101 13.047"><path paint-order="stroke fill markers" fill-rule="evenodd" d="M10.67 8.42l-5.05 5.05L.57 8.42V.425h10.1v7.997z"/></svg></svg><svg width="5" height="7" xmlns="http://www.w3.org/2000/svg" xmlns:xlink="http://www.w3.org/1999/xlink" xmlns:svgjs="http://svgjs.com/svgjs" viewBox="0.225 0 4.551 7" fill="#ffd664" x="445" y="1717"><svg xmlns="http://www.w3.org/2000/svg" xmlns:xlink="http://www.w3.org/1999/xlink" width="5" height="7" viewBox="0.807 0.502 3.648 5.611"><path paint-order="stroke fill markers" fill-rule="evenodd" d="M.807.502h3.648v5.612H.807V.502z"/></svg></svg><svg width="35" height="15" xmlns="http://www.w3.org/2000/svg" xmlns:xlink="http://www.w3.org/1999/xlink" xmlns:svgjs="http://svgjs.com/svgjs" viewBox="0.024 0 34.952 15" fill="#494949" x="415" y="1703"><svg xmlns="http://www.w3.org/2000/svg" xmlns:xlink="http://www.w3.org/1999/xlink" width="35" height="15" viewBox="0.785 0.052 33.67 14.45"><path paint-order="stroke fill markers" fill-rule="evenodd" d="M31.79.052v8.839a2.806 2.806 0 0 1-2.806 2.805H.784v2.806h33.671V.052H31.79z"/></svg></svg><svg width="5" height="7" xmlns="http://www.w3.org/2000/svg" xmlns:xlink="http://www.w3.org/1999/xlink" xmlns:svgjs="http://svgjs.com/svgjs" viewBox="0.225 0 4.55 7" fill="#ffd664" x="415" y="1717"><svg xmlns="http://www.w3.org/2000/svg" xmlns:xlink="http://www.w3.org/1999/xlink" width="5" height="7" viewBox="0.785 0.502 3.648 5.611"><path paint-order="stroke fill markers" fill-rule="evenodd" d="M.785.502h3.647v5.612H.785V.502z"/></svg></svg><svg width="32" height="24" xmlns="http://www.w3.org/2000/svg" xmlns:xlink="http://www.w3.org/1999/xlink" xmlns:svgjs="http://svgjs.com/svgjs" viewBox="0 0.09 32 23.821" fill="#feccc1" x="414" y="1717"><svg xmlns="http://www.w3.org/2000/svg" xmlns:xlink="http://www.w3.org/1999/xlink" width="32" height="24" viewBox="0.522 0.502 31.285 23.288"><path paint-order="stroke fill markers" fill-rule="evenodd" d="M18.62.502H5.432v4.63H3.328A2.806 2.806 0 0 0 .522 7.938v1.964a2.806 2.806 0 0 0 2.806 2.806H5.6C6.608 18.99 12.053 23.79 18.62 23.79c7.283 0 13.187-5.904 13.187-13.188V.503H18.62z"/></svg></svg><svg width="21" height="24" xmlns="http://www.w3.org/2000/svg" xmlns:xlink="http://www.w3.org/1999/xlink" xmlns:svgjs="http://svgjs.com/svgjs" viewBox="0.163 0 20.675 24" fill="#f9b3a7" x="430" y="1717"><svg xmlns="http://www.w3.org/2000/svg" xmlns:xlink="http://www.w3.org/1999/xlink" width="21" height="24" viewBox="0.655 0.502 20.062 23.288"><path paint-order="stroke fill markers" fill-rule="evenodd" d="M17.912 5.132h-2.105V.502H11.88v10.101c0 6.616-4.872 12.094-11.224 13.042.642.096 1.297.146 1.965.146 6.567 0 12.011-4.8 13.02-11.084h2.272a2.805 2.805 0 0 0 2.805-2.805V7.938a2.806 2.806 0 0 0-2.805-2.806z"/></svg></svg><svg width="12" height="10" xmlns="http://www.w3.org/2000/svg" xmlns:xlink="http://www.w3.org/1999/xlink" xmlns:svgjs="http://svgjs.com/svgjs" viewBox="0 0.247 12 9.507" fill="#ff6969" x="427" y="1750"><svg xmlns="http://www.w3.org/2000/svg" xmlns:xlink="http://www.w3.org/1999/xlink" width="12" height="10" viewBox="0.218 0.471 10.802 8.558"><path paint-order="stroke fill markers" fill-rule="evenodd" d="M5.62 9.029h2.665l2.736-3.157L5.62.471.218 5.872 2.954 9.03H5.62z"/></svg></svg><svg width="9" height="10" xmlns="http://www.w3.org/2000/svg" xmlns:xlink="http://www.w3.org/1999/xlink" xmlns:svgjs="http://svgjs.com/svgjs" viewBox="0.381 0 8.237 10" fill="#ea4747" x="430" y="1750"><svg xmlns="http://www.w3.org/2000/svg" xmlns:xlink="http://www.w3.org/1999/xlink" width="9" height="10" viewBox="0.971 0.471 7.049 8.558"><path paint-order="stroke fill markers" fill-rule="evenodd" d="M2.62.47L.97 2.12l2.83 2.828c.52.521.55 1.355.068 1.911l-1.88 2.17h3.296L8.02 5.872 2.62.471z"/></svg></svg><svg width="9" height="11" xmlns="http://www.w3.org/2000/svg" xmlns:xlink="http://www.w3.org/1999/xlink" xmlns:svgjs="http://svgjs.com/svgjs" viewBox="0.033 0 8.933 11" fill="#2b7eec" x="424" y="1745"><svg xmlns="http://www.w3.org/2000/svg" xmlns:xlink="http://www.w3.org/1999/xlink" width="9" height="11" viewBox="0.132 0.421 8.488 10.451"><path paint-order="stroke fill markers" fill-rule="evenodd" d="M3.218 10.872L8.62 5.471 3.57.42.131 3.95l3.086 6.921z"/></svg></svg><svg width="10" height="11" xmlns="http://www.w3.org/2000/svg" xmlns:xlink="http://www.w3.org/1999/xlink" xmlns:svgjs="http://svgjs.com/svgjs" viewBox="0.534 0 8.933 11" fill="#2b7eec" x="432" y="1745"><svg xmlns="http://www.w3.org/2000/svg" xmlns:xlink="http://www.w3.org/1999/xlink" width="10" height="11" viewBox="0.62 0.421 8.487 10.451"><path paint-order="stroke fill markers" fill-rule="evenodd" d="M6.02 10.872L.62 5.471 5.67.42l3.437 3.53-3.086 6.921z"/></svg></svg><svg width="39" height="7" xmlns="http://www.w3.org/2000/svg" xmlns:xlink="http://www.w3.org/1999/xlink" xmlns:svgjs="http://svgjs.com/svgjs" viewBox="413 1766 39 7" x="413" y="1766"><svg width="3" height="7" xmlns="http://www.w3.org/2000/svg" xmlns:xlink="http://www.w3.org/1999/xlink" xmlns:svgjs="http://svgjs.com/svgjs" viewBox="0.137 0 2.727 7" fill="#494949" x="449" y="1766"><svg xmlns="http://www.w3.org/2000/svg" xmlns:xlink="http://www.w3.org/1999/xlink" width="3" height="7" viewBox="0.525 0.675 2.104 5.402"><path paint-order="stroke fill markers" fill-rule="evenodd" d="M2.63 1.727v4.35H.524v-4.35a1.053 1.053 0 0 1 2.104 0z"/></svg></svg><svg width="3" height="7" xmlns="http://www.w3.org/2000/svg" xmlns:xlink="http://www.w3.org/1999/xlink" xmlns:svgjs="http://svgjs.com/svgjs" viewBox="0.136 0 2.727 7" fill="#494949" x="413" y="1766"><svg xmlns="http://www.w3.org/2000/svg" width="3" height="7" viewBox="0.61 0.675 2.104 5.402"><path paint-order="stroke fill markers" fill-rule="evenodd" d="M.61 6.076v-4.35a1.053 1.053 0 0 1 2.104 0v4.35H.61z"/></svg></svg></svg></svg>