<svg width="57" height="65" xmlns="http://www.w3.org/2000/svg" xmlns:xlink="http://www.w3.org/1999/xlink" xmlns:svgjs="http://svgjs.com/svgjs" viewBox="905 1705 57 65"><svg width="11" height="10" xmlns="http://www.w3.org/2000/svg" xmlns:xlink="http://www.w3.org/1999/xlink" xmlns:svgjs="http://svgjs.com/svgjs" viewBox="0.072 0 10.857 10" fill="#ffd664" x="921" y="1705"><svg xmlns="http://www.w3.org/2000/svg" xmlns:xlink="http://www.w3.org/1999/xlink" width="11" height="10" viewBox="0.473 0 9.937 9.152"><path paint-order="stroke fill markers" fill-rule="evenodd" d="M.473 9.152V4.968a4.969 4.969 0 1 1 9.937 0v4.184H.473z"/></svg></svg><svg width="11" height="10" xmlns="http://www.w3.org/2000/svg" xmlns:xlink="http://www.w3.org/1999/xlink" xmlns:svgjs="http://svgjs.com/svgjs" viewBox="0.071 0 10.857 10" fill="#f9c646" x="921" y="1705"><svg xmlns="http://www.w3.org/2000/svg" xmlns:xlink="http://www.w3.org/1999/xlink" width="11" height="10" viewBox="0.473 0 9.937 9.152"><path paint-order="stroke fill markers" fill-rule="evenodd" d="M5.618.003a4.98 4.98 0 0 0-1.222.108 4.97 4.97 0 0 1 3.922 4.857v1.438a.784.784 0 0 1-.784.785H.474v1.961h9.936V5.06C10.41 2.37 8.307.098 5.618.003z"/></svg></svg><svg width="43" height="56" xmlns="http://www.w3.org/2000/svg" xmlns:xlink="http://www.w3.org/1999/xlink" xmlns:svgjs="http://svgjs.com/svgjs" viewBox="0 0.339 43 55.323" fill="#2b7eec" x="905" y="1714"><svg xmlns="http://www.w3.org/2000/svg" xmlns:xlink="http://www.w3.org/1999/xlink" width="43" height="56" viewBox="0 0.152 42.884 55.173"><path paint-order="stroke fill markers" fill-rule="evenodd" d="M40.269 55.326H2.615A2.615 2.615 0 0 1 0 52.71V2.767A2.614 2.614 0 0 1 2.615.152h37.654a2.614 2.614 0 0 1 2.615 2.615v49.944a2.614 2.614 0 0 1-2.615 2.615z"/></svg></svg><svg width="43" height="56" xmlns="http://www.w3.org/2000/svg" xmlns:xlink="http://www.w3.org/1999/xlink" xmlns:svgjs="http://svgjs.com/svgjs" viewBox="0 0.331 43 55.339" fill="#2b7eec" x="905" y="1714"><svg xmlns="http://www.w3.org/2000/svg" xmlns:xlink="http://www.w3.org/1999/xlink" width="43" height="56" viewBox="0.052 0.204 42.831 55.121"><path paint-order="stroke fill markers" fill-rule="evenodd" d="M40.792.204v51.722c0 .723-.586 1.308-1.307 1.308H.052a2.616 2.616 0 0 0 2.563 2.092h37.654a2.615 2.615 0 0 0 2.615-2.615V2.767c0-1.265-.899-2.32-2.092-2.563z"/></svg></svg><svg width="35" height="48" xmlns="http://www.w3.org/2000/svg" xmlns:xlink="http://www.w3.org/1999/xlink" xmlns:svgjs="http://svgjs.com/svgjs" viewBox="0 0.269 35 47.462" fill="#ddf5ff" x="909" y="1718"><svg xmlns="http://www.w3.org/2000/svg" xmlns:xlink="http://www.w3.org/1999/xlink" width="35" height="48" viewBox="0.184 0.336 34.517 46.806"><path paint-order="stroke fill markers" fill-rule="evenodd" d="M.184 45.835V1.643C.184.921.769.336 1.49.336h31.902c.722 0 1.307.585 1.307 1.307v44.192c0 .721-.585 1.307-1.307 1.307H1.49a1.308 1.308 0 0 1-1.307-1.307z"/></svg></svg><svg width="35" height="48" xmlns="http://www.w3.org/2000/svg" xmlns:xlink="http://www.w3.org/1999/xlink" xmlns:svgjs="http://svgjs.com/svgjs" viewBox="0 0.269 35 47.462" fill="#c1e9f4" x="909" y="1718"><svg xmlns="http://www.w3.org/2000/svg" xmlns:xlink="http://www.w3.org/1999/xlink" width="35" height="48" viewBox="0.184 0.336 34.517 46.806"><path paint-order="stroke fill markers" fill-rule="evenodd" d="M32.673.336v43.472c0 .722-.585 1.307-1.307 1.307H.184v.72c0 .722.585 1.307 1.307 1.307h31.902c.722 0 1.307-.585 1.307-1.307V1.643c0-.722-.585-1.307-1.307-1.307h-.72z"/></svg></svg><svg width="9" height="43" xmlns="http://www.w3.org/2000/svg" xmlns:xlink="http://www.w3.org/1999/xlink" xmlns:svgjs="http://svgjs.com/svgjs" viewBox="0.508 0 7.985 43" fill="#ffd664" x="953" y="1721"><svg xmlns="http://www.w3.org/2000/svg" xmlns:xlink="http://www.w3.org/1999/xlink" width="9" height="43" viewBox="0.375 0.604 7.845 42.246"><path paint-order="stroke fill markers" fill-rule="evenodd" d="M7.928 39.141l-2.615 3.225a1.308 1.308 0 0 1-2.031 0L.667 39.141a1.307 1.307 0 0 1-.292-.823V.604H8.22v37.714c0 .3-.103.59-.292.823z"/></svg></svg><svg width="9" height="43" xmlns="http://www.w3.org/2000/svg" xmlns:xlink="http://www.w3.org/1999/xlink" xmlns:svgjs="http://svgjs.com/svgjs" viewBox="0.508 0 7.985 43" fill="#ffd664" x="953" y="1721"><svg xmlns="http://www.w3.org/2000/svg" xmlns:xlink="http://www.w3.org/1999/xlink" width="9" height="43" viewBox="0.375 0.604 7.845 42.246"><path paint-order="stroke fill markers" fill-rule="evenodd" d="M7.928 39.141l-2.615 3.225a1.308 1.308 0 0 1-2.031 0L.667 39.141a1.307 1.307 0 0 1-.292-.823V.604H8.22v37.714c0 .3-.103.59-.292.823z"/></svg></svg><svg width="7" height="43" xmlns="http://www.w3.org/2000/svg" xmlns:xlink="http://www.w3.org/1999/xlink" xmlns:svgjs="http://svgjs.com/svgjs" viewBox="0.843 0 5.314 43" fill="#f9c646" x="955" y="1721"><svg xmlns="http://www.w3.org/2000/svg" xmlns:xlink="http://www.w3.org/1999/xlink" width="7" height="43" viewBox="0.999 0.604 5.221 42.246"><path paint-order="stroke fill markers" fill-rule="evenodd" d="M4.259.604v37.393l-3.26 4.02.283.35a1.308 1.308 0 0 0 2.03 0l2.616-3.226c.189-.232.292-.523.292-.823V.604H4.259z"/></svg></svg><svg width="3" height="41" xmlns="http://www.w3.org/2000/svg" xmlns:xlink="http://www.w3.org/1999/xlink" xmlns:svgjs="http://svgjs.com/svgjs" viewBox="0.498 0 2.004 41" fill="#636363" x="956" y="1720"><svg xmlns="http://www.w3.org/2000/svg" xmlns:xlink="http://www.w3.org/1999/xlink" width="3" height="41" viewBox="0.316 0.623 1.962 40.138"><path paint-order="stroke fill markers" fill-rule="evenodd" d="M1.298 40.762a.98.98 0 0 1-.982-.98V1.603a.981.981 0 0 1 1.962 0v38.177a.98.98 0 0 1-.98.98z"/></svg></svg><svg width="9" height="8" xmlns="http://www.w3.org/2000/svg" xmlns:xlink="http://www.w3.org/1999/xlink" xmlns:svgjs="http://svgjs.com/svgjs" viewBox="0.289 0 8.421 8" fill="#ff6969" x="953" y="1714"><svg xmlns="http://www.w3.org/2000/svg" xmlns:xlink="http://www.w3.org/1999/xlink" width="9" height="8" viewBox="0.375 0.152 7.845 7.453"><path paint-order="stroke fill markers" fill-rule="evenodd" d="M8.22 7.604H.375V2.113c0-1.083.878-1.961 1.961-1.961H6.26c1.083 0 1.96.878 1.96 1.96v5.492z"/></svg></svg><svg width="3" height="8" xmlns="http://www.w3.org/2000/svg" xmlns:xlink="http://www.w3.org/1999/xlink" xmlns:svgjs="http://svgjs.com/svgjs" viewBox="0.447 0 2.105 8" fill="#ea4747" x="959" y="1714"><svg xmlns="http://www.w3.org/2000/svg" xmlns:xlink="http://www.w3.org/1999/xlink" width="3" height="8" viewBox="0.259 0.152 1.961 7.452"><path paint-order="stroke fill markers" fill-rule="evenodd" d="M.259.152v7.452h1.96V2.113C2.22 1.03 1.343.153.26.153z"/></svg></svg><svg width="5" height="5" xmlns="http://www.w3.org/2000/svg" xmlns:xlink="http://www.w3.org/1999/xlink" xmlns:svgjs="http://svgjs.com/svgjs" fill="#f9c646" x="924" y="1707"><svg xmlns="http://www.w3.org/2000/svg" xmlns:xlink="http://www.w3.org/1999/xlink" width="5" height="5" viewBox="0.611 0.746 3.661 3.66"><path paint-order="stroke fill markers" fill-rule="evenodd" d="M4.272 2.576a1.83 1.83 0 1 1-3.66 0 1.83 1.83 0 0 1 3.66 0z"/></svg></svg><svg width="24" height="39" xmlns="http://www.w3.org/2000/svg" xmlns:xlink="http://www.w3.org/1999/xlink" xmlns:svgjs="http://svgjs.com/svgjs" viewBox="916 1722 24 39" x="916" y="1722"><svg width="21" height="3" xmlns="http://www.w3.org/2000/svg" xmlns:xlink="http://www.w3.org/1999/xlink" xmlns:svgjs="http://svgjs.com/svgjs" viewBox="0 0.457 21 2.086" fill="#636363" x="916" y="1722"><svg xmlns="http://www.w3.org/2000/svg" xmlns:xlink="http://www.w3.org/1999/xlink" width="21" height="3" viewBox="0.571 0.847 19.742 1.961"><path paint-order="stroke fill markers" fill-rule="evenodd" d="M19.332 2.808H1.552a.98.98 0 0 1 0-1.961h17.78a.98.98 0 1 1 0 1.96z"/></svg></svg><svg width="19" height="3" xmlns="http://www.w3.org/2000/svg" xmlns:xlink="http://www.w3.org/1999/xlink" xmlns:svgjs="http://svgjs.com/svgjs" viewBox="0 0.46 19 2.08" fill="#636363" x="921" y="1729"><svg xmlns="http://www.w3.org/2000/svg" xmlns:xlink="http://www.w3.org/1999/xlink" width="19" height="3" viewBox="0.931 0.776 17.912 1.961"><path paint-order="stroke fill markers" fill-rule="evenodd" d="M17.862 2.737H1.912a.98.98 0 1 1 0-1.961h15.95a.98.98 0 1 1 0 1.96z"/></svg></svg><svg width="13" height="3" xmlns="http://www.w3.org/2000/svg" xmlns:xlink="http://www.w3.org/1999/xlink" xmlns:svgjs="http://svgjs.com/svgjs" viewBox="0 0.379 13 2.241" fill="#636363" x="921" y="1734"><svg xmlns="http://www.w3.org/2000/svg" xmlns:xlink="http://www.w3.org/1999/xlink" width="13" height="3" viewBox="0.931 0.875 11.374 1.961"><path paint-order="stroke fill markers" fill-rule="evenodd" d="M11.325 2.836H1.912a.98.98 0 0 1 0-1.961h9.413a.98.98 0 1 1 0 1.961z"/></svg></svg><svg width="19" height="3" xmlns="http://www.w3.org/2000/svg" xmlns:xlink="http://www.w3.org/1999/xlink" xmlns:svgjs="http://svgjs.com/svgjs" viewBox="0 0.46 19 2.08" fill="#636363" x="921" y="1741"><svg xmlns="http://www.w3.org/2000/svg" xmlns:xlink="http://www.w3.org/1999/xlink" width="19" height="3" viewBox="0.931 0.412 17.912 1.961"><path paint-order="stroke fill markers" fill-rule="evenodd" d="M17.862 2.373H1.912a.98.98 0 1 1 0-1.961h15.95a.98.98 0 1 1 0 1.961z"/></svg></svg><svg width="13" height="3" xmlns="http://www.w3.org/2000/svg" xmlns:xlink="http://www.w3.org/1999/xlink" xmlns:svgjs="http://svgjs.com/svgjs" viewBox="0 0.379 13 2.241" fill="#636363" x="921" y="1746"><svg xmlns="http://www.w3.org/2000/svg" xmlns:xlink="http://www.w3.org/1999/xlink" width="13" height="3" viewBox="0.931 0.511 11.374 1.961"><path paint-order="stroke fill markers" fill-rule="evenodd" d="M11.325 2.472H1.912a.98.98 0 1 1 0-1.961h9.413a.98.98 0 0 1 0 1.961z"/></svg></svg><svg width="19" height="3" xmlns="http://www.w3.org/2000/svg" xmlns:xlink="http://www.w3.org/1999/xlink" xmlns:svgjs="http://svgjs.com/svgjs" viewBox="0 0.46 19 2.081" fill="#636363" x="921" y="1753"><svg xmlns="http://www.w3.org/2000/svg" xmlns:xlink="http://www.w3.org/1999/xlink" width="19" height="3" viewBox="0.931 0.048 17.912 1.961"><path paint-order="stroke fill markers" fill-rule="evenodd" d="M17.862 2.01H1.912a.98.98 0 0 1 0-1.962h15.95a.98.98 0 1 1 0 1.961z"/></svg></svg><svg width="13" height="3" xmlns="http://www.w3.org/2000/svg" xmlns:xlink="http://www.w3.org/1999/xlink" xmlns:svgjs="http://svgjs.com/svgjs" viewBox="0 0.379 13 2.241" fill="#636363" x="921" y="1758"><svg xmlns="http://www.w3.org/2000/svg" xmlns:xlink="http://www.w3.org/1999/xlink" width="13" height="3" viewBox="0.931 0.147 11.374 1.961"><path paint-order="stroke fill markers" fill-rule="evenodd" d="M11.325 2.108H1.912a.98.98 0 1 1 0-1.961h9.413a.981.981 0 0 1 0 1.961z"/></svg></svg></svg><svg width="8" height="8" xmlns="http://www.w3.org/2000/svg" xmlns:xlink="http://www.w3.org/1999/xlink" xmlns:svgjs="http://svgjs.com/svgjs" viewBox="0 0.072 8 7.857" fill="#7ae57d" x="913" y="1729"><svg xmlns="http://www.w3.org/2000/svg" xmlns:xlink="http://www.w3.org/1999/xlink" width="8" height="8" viewBox="0.041 0.645 7.322 7.191"><path paint-order="stroke fill markers" fill-rule="evenodd" d="M6.382.645h-5.36a.98.98 0 0 0-.981.98v5.23c0 .542.438.981.98.981h5.36a.98.98 0 0 0 .981-.98v-5.23a.98.98 0 0 0-.98-.98z"/></svg></svg><svg width="8" height="8" xmlns="http://www.w3.org/2000/svg" xmlns:xlink="http://www.w3.org/1999/xlink" xmlns:svgjs="http://svgjs.com/svgjs" viewBox="0 0.072 8 7.857" fill="#7ae57d" x="913" y="1741"><svg xmlns="http://www.w3.org/2000/svg" xmlns:xlink="http://www.w3.org/1999/xlink" width="8" height="8" viewBox="0.041 0.281 7.322 7.191"><path paint-order="stroke fill markers" fill-rule="evenodd" d="M6.382.281h-5.36a.98.98 0 0 0-.981.98v5.23c0 .542.438.981.98.981h5.36a.98.98 0 0 0 .981-.98v-5.23a.98.98 0 0 0-.98-.98z"/></svg></svg><svg width="8" height="9" xmlns="http://www.w3.org/2000/svg" xmlns:xlink="http://www.w3.org/1999/xlink" xmlns:svgjs="http://svgjs.com/svgjs" viewBox="0 0.572 8 7.857" fill="#636363" x="913" y="1752"><svg xmlns="http://www.w3.org/2000/svg" width="8" height="9" viewBox="0.041 0.917 7.322 7.191"><path paint-order="stroke fill markers" fill-rule="evenodd" d="M6.382 8.108h-5.36a.98.98 0 0 1-.981-.98v-5.23a.98.98 0 0 1 .98-.98h5.36a.98.98 0 0 1 .981.98v5.23a.98.98 0 0 1-.98.98zm-4.38-1.961h3.4V2.879h-3.4v3.268z"/></svg></svg></svg>